
<svg width="113" height="35" viewBox="0 0 113 35" fill="none" xmlns="http://www.w3.org/2000/svg">
<mask id="path-1-inside-1_1_203" fill="white">
<path fill-rule="evenodd" clip-rule="evenodd" d="M7.6419 10.2401C7.21338 6.39899 3.95546 3.41251 0 3.41251V19.075V19.1625H0.000419469C0.047311 24.0513 4.01966 28 8.91304 28C13.8356 28 17.8261 24.0041 17.8261 19.075C17.8261 14.1459 13.8356 10.15 8.91304 10.15C8.48147 10.15 8.05707 10.1807 7.6419 10.2401Z"/>
</mask>
<path fill-rule="evenodd" clip-rule="evenodd" d="M7.6419 10.2401C7.21338 6.39899 3.95546 3.41251 0 3.41251V19.075V19.1625H0.000419469C0.047311 24.0513 4.01966 28 8.91304 28C13.8356 28 17.8261 24.0041 17.8261 19.075C17.8261 14.1459 13.8356 10.15 8.91304 10.15C8.48147 10.15 8.05707 10.1807 7.6419 10.2401Z" fill="#5D5FEF"/>
<path d="M0 3.41251V3.06274H-0.349765V3.41251H0ZM7.6419 10.2401L7.29429 10.2789L7.33428 10.6374L7.6914 10.5863L7.6419 10.2401ZM0 19.1625H-0.349765V19.5123H0V19.1625ZM0.000419469 19.1625L0.350169 19.1592L0.346846 18.8127H0.000419469V19.1625ZM0 3.76227C3.7753 3.76227 6.8853 6.61285 7.29429 10.2789L7.9895 10.2013C7.54146 6.18513 4.13561 3.06274 0 3.06274V3.76227ZM0.349765 19.075V3.41251H-0.349765V19.075H0.349765ZM0.349765 19.1625V19.075H-0.349765V19.1625H0.349765ZM0.000419469 18.8127H0V19.5123H0.000419469V18.8127ZM8.91304 27.6502C4.21215 27.6502 0.395226 23.8568 0.350169 19.1592L-0.34933 19.1659C-0.300604 24.2459 3.82718 28.3498 8.91304 28.3498V27.6502ZM17.4763 19.075C17.4763 23.8114 13.642 27.6502 8.91304 27.6502V28.3498C14.0292 28.3498 18.1758 24.1969 18.1758 19.075H17.4763ZM8.91304 10.4998C13.642 10.4998 17.4763 14.3386 17.4763 19.075H18.1758C18.1758 13.9531 14.0292 9.80024 8.91304 9.80024V10.4998ZM7.6914 10.5863C8.09023 10.5293 8.49809 10.4998 8.91304 10.4998V9.80024C8.46486 9.80024 8.02391 9.83214 7.59239 9.89384L7.6914 10.5863Z" fill="url(#paint0_linear_1_203)" fill-opacity="0.1" mask="url(#path-1-inside-1_1_203)"/>
<path d="M23.627 25.6776C23.4404 25.4164 23.3565 25.0993 23.3751 24.7262C23.3938 24.3345 23.6176 23.9987 24.0467 23.7189C24.3265 23.551 24.625 23.4857 24.9421 23.523C25.2778 23.5417 25.5856 23.7002 25.8655 23.9987C26.4064 24.5397 26.9847 24.9687 27.6003 25.2858C28.2159 25.6029 28.9807 25.7615 29.8948 25.7615C30.1932 25.7428 30.5197 25.6962 30.8741 25.6216C31.2472 25.5283 31.5643 25.3604 31.8255 25.1179C32.0866 24.8754 32.2172 24.5023 32.2172 23.9987C32.2172 23.5696 32.068 23.2245 31.7695 22.9634C31.4897 22.7022 31.1166 22.4877 30.6502 22.3198C30.1839 22.1519 29.6709 21.9934 29.1113 21.8441C28.5143 21.6762 27.9174 21.4897 27.3205 21.2845C26.7235 21.0793 26.1732 20.8181 25.6696 20.501C25.1659 20.1653 24.7555 19.7362 24.4384 19.2139C24.1399 18.6729 23.9907 18.0014 23.9907 17.1992C23.9907 16.2852 24.2425 15.511 24.7462 14.8768C25.2499 14.2239 25.9121 13.7202 26.7329 13.3658C27.5537 13.0114 28.4211 12.8342 29.3351 12.8342C29.9134 12.8342 30.5103 12.9088 31.1259 13.058C31.7415 13.1886 32.3291 13.4031 32.8887 13.7016C33.467 14.0001 33.9614 14.4011 34.3717 14.9048C34.5583 15.1659 34.6702 15.4831 34.7075 15.8561C34.7448 16.2292 34.5769 16.565 34.2039 16.8635C33.9427 17.0687 33.6349 17.1619 33.2805 17.1433C32.9447 17.106 32.6556 16.9847 32.4131 16.7795C32.0773 16.3505 31.6389 16.0147 31.0979 15.7722C30.557 15.5297 29.9414 15.4084 29.2512 15.4084C28.9341 15.4084 28.5983 15.4551 28.2439 15.5484C27.9081 15.623 27.6096 15.7722 27.3485 15.9961C27.106 16.2199 26.9847 16.5743 26.9847 17.0593C26.9847 17.507 27.1246 17.8615 27.4044 18.1226C27.7029 18.3838 28.0946 18.5983 28.5796 18.7662C29.0833 18.9341 29.6149 19.0926 30.1746 19.2419C30.7342 19.3911 31.3031 19.5683 31.8814 19.7735C32.4597 19.9787 32.982 20.2492 33.4484 20.585C33.9334 20.9207 34.3158 21.3498 34.5956 21.8721C34.8941 22.3944 35.0433 23.0566 35.0433 23.8588C35.0433 24.7915 34.7728 25.5936 34.2318 26.2652C33.6909 26.9181 33.0007 27.4217 32.1612 27.7762C31.3404 28.1119 30.4824 28.2798 29.587 28.2798C28.505 28.2798 27.4231 28.0933 26.3411 27.7202C25.2592 27.3285 24.3545 26.6476 23.627 25.6776ZM49.5507 13.114C50.017 13.114 50.3901 13.2632 50.6699 13.5617C50.9684 13.8601 51.1176 14.2426 51.1176 14.7089V32.0013C51.1176 32.449 50.9684 32.8221 50.6699 33.1206C50.3901 33.4377 50.017 33.5962 49.5507 33.5962C49.103 33.5962 48.7299 33.4377 48.4314 33.1206C48.133 32.8221 47.9837 32.449 47.9837 32.0013V24.7822L48.5993 24.95C48.5993 25.2299 48.4594 25.5563 48.1796 25.9294C47.9185 26.3025 47.5547 26.6662 47.0883 27.0207C46.6406 27.3751 46.109 27.6736 45.4934 27.9161C44.8778 28.1586 44.2156 28.2798 43.5067 28.2798C42.2196 28.2798 41.0537 27.9534 40.0091 27.3005C38.9831 26.6289 38.1623 25.7149 37.5467 24.5583C36.9498 23.4018 36.6513 22.068 36.6513 20.557C36.6513 19.046 36.9498 17.7122 37.5467 16.5557C38.1623 15.3991 38.9738 14.4944 39.9811 13.8415C41.0071 13.1699 42.145 12.8342 43.3948 12.8342C44.1969 12.8342 44.9338 12.9554 45.6053 13.1979C46.2769 13.4404 46.8645 13.7576 47.3682 14.1493C47.8718 14.541 48.2542 14.9421 48.5154 15.3525C48.7952 15.7629 48.9351 16.1266 48.9351 16.4438L47.9837 16.7236V14.7089C47.9837 14.2612 48.133 13.8881 48.4314 13.5897C48.7299 13.2725 49.103 13.114 49.5507 13.114ZM43.8985 25.3977C44.7379 25.3977 45.4748 25.1925 46.109 24.7822C46.7432 24.3531 47.2376 23.7748 47.592 23.0473C47.9464 22.3012 48.1236 21.471 48.1236 20.557C48.1236 19.6429 47.9464 18.8222 47.592 18.0946C47.2376 17.3485 46.7432 16.7702 46.109 16.3598C45.4748 15.9308 44.7379 15.7162 43.8985 15.7162C43.059 15.7162 42.3222 15.9308 41.688 16.3598C41.0537 16.7702 40.5594 17.3485 40.205 18.0946C39.8505 18.8222 39.6733 19.6429 39.6733 20.557C39.6733 21.471 39.8505 22.3012 40.205 23.0473C40.5594 23.7748 41.0537 24.3531 41.688 24.7822C42.3222 25.1925 43.059 25.3977 43.8985 25.3977ZM65.3601 13.142C65.8078 13.142 66.1809 13.2912 66.4793 13.5897C66.7778 13.8881 66.927 14.2705 66.927 14.7369V21.9281C66.927 23.8868 66.3767 25.4351 65.2761 26.573C64.1942 27.7109 62.6366 28.2798 60.6033 28.2798C58.57 28.2798 57.0124 27.7109 55.9304 26.573C54.8485 25.4351 54.3075 23.8868 54.3075 21.9281V14.7369C54.3075 14.2705 54.4567 13.8881 54.7552 13.5897C55.0537 13.2912 55.4268 13.142 55.8745 13.142C56.3221 13.142 56.6952 13.2912 56.9937 13.5897C57.2922 13.8881 57.4414 14.2705 57.4414 14.7369V21.9281C57.4414 23.1033 57.7026 23.98 58.2249 24.5583C58.7658 25.1179 59.5586 25.3977 60.6033 25.3977C61.6666 25.3977 62.4594 25.1179 62.9817 24.5583C63.5227 23.98 63.7931 23.1033 63.7931 21.9281V14.7369C63.7931 14.2705 63.933 13.8881 64.2129 13.5897C64.5113 13.2912 64.8937 13.142 65.3601 13.142ZM82.2876 12.8622C82.754 12.8622 83.1271 13.0114 83.4069 13.3099C83.7054 13.6083 83.8546 13.9907 83.8546 14.4571V26.4051C83.8546 26.8528 83.7054 27.2352 83.4069 27.5523C83.1271 27.8508 82.754 28 82.2876 28C81.8399 28 81.4669 27.8508 81.1684 27.5523C80.8699 27.2352 80.7207 26.8528 80.7207 26.4051V24.7822L81.3363 24.978C81.3363 25.2578 81.1964 25.5843 80.9166 25.9574C80.6554 26.3118 80.2917 26.6662 79.8253 27.0207C79.3776 27.3751 78.846 27.6736 78.2304 27.9161C77.6148 28.1586 76.9526 28.2798 76.2437 28.2798C74.9566 28.2798 73.7907 27.9534 72.746 27.3005C71.7201 26.6289 70.8993 25.7149 70.2837 24.5583C69.6868 23.4018 69.3883 22.068 69.3883 20.557C69.3883 19.046 69.6868 17.7122 70.2837 16.5557C70.8993 15.3991 71.7107 14.4944 72.7181 13.8415C73.744 13.1699 74.8819 12.8342 76.1318 12.8342C76.9339 12.8342 77.6707 12.9554 78.3423 13.1979C79.0325 13.4404 79.6201 13.7576 80.1051 14.1493C80.6088 14.541 80.9912 14.9421 81.2523 15.3525C81.5322 15.7629 81.6721 16.1266 81.6721 16.4438L80.7207 16.7236V14.4571C80.7207 14.0094 80.8699 13.6363 81.1684 13.3378C81.4669 13.0207 81.8399 12.8622 82.2876 12.8622ZM76.6354 25.3977C77.4749 25.3977 78.2117 25.1925 78.846 24.7822C79.4802 24.3531 79.9745 23.7748 80.329 23.0473C80.6834 22.3012 80.8606 21.471 80.8606 20.557C80.8606 19.6429 80.6834 18.8222 80.329 18.0946C79.9745 17.3485 79.4802 16.7702 78.846 16.3598C78.2117 15.9308 77.4749 15.7162 76.6354 15.7162C75.796 15.7162 75.0592 15.9308 74.4249 16.3598C73.7907 16.7702 73.2963 17.3485 72.9419 18.0946C72.5875 18.8222 72.4103 19.6429 72.4103 20.557C72.4103 21.471 72.5875 22.3012 72.9419 23.0473C73.2963 23.7748 73.7907 24.3531 74.4249 24.7822C75.0592 25.1925 75.796 25.3977 76.6354 25.3977ZM88.6114 28C88.1637 28 87.7906 27.8508 87.4922 27.5523C87.1937 27.2352 87.0445 26.8528 87.0445 26.4051V14.7369C87.0445 14.2705 87.1937 13.8881 87.4922 13.5897C87.7906 13.2912 88.1637 13.142 88.6114 13.142C89.0591 13.142 89.4322 13.2912 89.7307 13.5897C90.0291 13.8881 90.1784 14.2705 90.1784 14.7369V17.563L89.9545 15.9401C90.141 15.4551 90.3929 15.026 90.71 14.653C91.0271 14.2612 91.3909 13.9348 91.8013 13.6736C92.2303 13.3938 92.6873 13.1886 93.1723 13.058C93.6574 12.9088 94.161 12.8342 94.6833 12.8342C95.2056 12.8342 95.6533 12.9834 96.0264 13.2819C96.3995 13.5617 96.5861 13.9161 96.5861 14.3452C96.5861 14.9048 96.4368 15.3152 96.1384 15.5763C95.8585 15.8375 95.5414 15.9681 95.187 15.9681C94.8512 15.9681 94.5434 15.9028 94.2636 15.7722C93.9838 15.6416 93.6667 15.5763 93.3123 15.5763C92.9392 15.5763 92.5661 15.6696 92.193 15.8561C91.8386 16.024 91.5028 16.2945 91.1857 16.6676C90.8872 17.022 90.6447 17.4604 90.4582 17.9827C90.2716 18.4864 90.1784 19.074 90.1784 19.7455V26.4051C90.1784 26.8528 90.0291 27.2352 89.7307 27.5523C89.4322 27.8508 89.0591 28 88.6114 28ZM104.792 28.2798C103.225 28.2798 101.864 27.9534 100.707 27.3005C99.5504 26.6476 98.655 25.7522 98.0207 24.6143C97.4052 23.4764 97.0974 22.1892 97.0974 20.7529C97.0974 19.0926 97.4331 17.6749 98.1047 16.4997C98.7762 15.3058 99.653 14.4011 100.735 13.7855C101.836 13.1513 102.992 12.8342 104.205 12.8342C105.137 12.8342 106.023 13.0207 106.863 13.3938C107.702 13.7669 108.448 14.2892 109.101 14.9607C109.754 15.6323 110.267 16.4158 110.64 17.3112C111.013 18.1879 111.209 19.1299 111.228 20.1373C111.209 20.5663 111.041 20.9114 110.724 21.1726C110.407 21.4337 110.043 21.5643 109.633 21.5643H98.8602L98.0767 18.9341H108.458L107.87 19.4657V18.7382C107.833 18.1599 107.628 17.6469 107.255 17.1992C106.9 16.7329 106.452 16.3691 105.911 16.108C105.37 15.8468 104.802 15.7162 104.205 15.7162C103.645 15.7162 103.113 15.8002 102.61 15.9681C102.125 16.1173 101.696 16.3785 101.323 16.7515C100.949 17.1246 100.651 17.619 100.427 18.2345C100.222 18.8501 100.119 19.615 100.119 20.529C100.119 21.555 100.325 22.4317 100.735 23.1592C101.164 23.8868 101.724 24.4464 102.414 24.8381C103.104 25.2112 103.85 25.3977 104.652 25.3977C105.324 25.3977 105.874 25.3418 106.303 25.2299C106.732 25.0993 107.077 24.95 107.338 24.7822C107.618 24.5956 107.861 24.4277 108.066 24.2785C108.383 24.1106 108.691 24.0267 108.989 24.0267C109.362 24.0267 109.67 24.1572 109.913 24.4184C110.174 24.6796 110.305 24.9874 110.305 25.3418C110.305 25.8081 110.071 26.2372 109.605 26.6289C109.101 27.058 108.411 27.4404 107.534 27.7762C106.658 28.1119 105.744 28.2798 104.792 28.2798Z" fill="#5D5FEF"/>
<defs>
<linearGradient id="paint0_linear_1_203" x1="8.91304" y1="-3.32499" x2="8.91304" y2="28" gradientUnits="userSpaceOnUse">
<stop stop-color="white"/>
<stop offset="1" stop-color="white" stop-opacity="0"/>
</linearGradient>
</defs>
</svg>
